<?xml version="1.0" encoding="UTF-8" standalone="no"?>
<svg
   xmlns:dc="http://purl.org/dc/elements/1.1/"
   xmlns:cc="http://creativecommons.org/ns#"
   xmlns:rdf="http://www.w3.org/1999/02/22-rdf-syntax-ns#"
   xmlns:svg="http://www.w3.org/2000/svg"
   xmlns="http://www.w3.org/2000/svg"
   viewBox="0 0 1821.3333 416"
   height="416"
   width="1821.3333"
   xml:space="preserve"
   id="svg2"
   version="1.1"><metadata
     id="metadata8"><rdf:RDF><cc:Work
         rdf:about=""><dc:format>image/svg+xml</dc:format><dc:type
           rdf:resource="http://purl.org/dc/dcmitype/StillImage" /></cc:Work></rdf:RDF></metadata><defs
     id="defs6"><clipPath
       id="clipPath18"
       clipPathUnits="userSpaceOnUse"><path
         id="path16"
         d="M 0,312 H 1366 V 0 H 0 Z" /></clipPath><clipPath
       id="clipPath38"
       clipPathUnits="userSpaceOnUse"><path
         id="path36"
         d="m 137.634,209.978 h 42.855 v -55.815 h -42.855 z" /></clipPath><clipPath
       id="clipPath58"
       clipPathUnits="userSpaceOnUse"><path
         id="path56"
         d="M 144.387,154.199 H 179.07 V 90.0139 h -34.683 z" /></clipPath><clipPath
       id="clipPath74"
       clipPathUnits="userSpaceOnUse"><path
         id="path72"
         d="m 179.07,165.438 h 47.936 V 140.893 H 179.07 Z" /></clipPath><clipPath
       id="clipPath90"
       clipPathUnits="userSpaceOnUse"><path
         id="path88"
         d="m 162.486,164.546 h 18.473 V 144.6 h -18.473 z" /></clipPath></defs><g
     transform="matrix(1.3333333,0,0,-1.3333333,0,416)"
     id="g10"><g
       id="g12"><g
         clip-path="url(#clipPath18)"
         id="g14"><g
           transform="translate(144.5915,170.1464)"
           id="g20"><path
             id="path22"
             style="fill:#ffffff;fill-opacity:1;fill-rule:nonzero;stroke:none"
             d="m 0,0 c 7.083,-6.576 9.092,-13.731 5.4,-22.559 -4.017,-9.636 -8.731,-18.898 -15.43,-27.041 -8.743,-10.647 -14.563,-12.128 -28.333,-6.323 -9.381,3.071 -18.46,8.985 -26.854,16.176 -6.302,5.408 -8.19,12.165 -5.617,19.693 4.306,12.659 10.487,24.33 19.916,34.122 4.647,5.243 12.075,7.01 18.58,4.42 C -20.517,14.237 -9.32,8.684 0,0 m -6.686,39.831 c -6.057,3.028 -12.397,5.449 -18.93,7.227 -17.75,4.818 -33.673,0.349 -46.456,-12.912 C -83.188,22.383 -91.815,8.49 -97.435,-6.697 c -7.721,-22.896 -2.249,-42.433 14.275,-56.392 12.003,-9.994 25.702,-17.746 40.443,-22.885 15.201,-5.48 30.162,-3.613 42.513,5.878 0.904,14.643 3.224,29.165 6.927,43.36 1.866,7.778 5.696,14.945 11.124,20.813 C 0.313,-2.156 -8.671,18.091 -6.686,39.831" /></g><g
           transform="translate(172.0712,183.7809)"
           id="g24"><path
             id="path26"
             style="fill:#ffffff;fill-opacity:1;fill-rule:nonzero;stroke:none"
             d="M 0,0 -0.301,0.385 Z" /></g><g
           transform="translate(180.4533,164.5457)"
           id="g28"><path
             id="path30"
             style="fill:#ffffff;fill-opacity:1;fill-rule:nonzero;stroke:none"
             d="M 0,0 C -1.083,7.048 -3.985,13.691 -8.418,19.271 -5.331,15.386 -1.541,12.117 2.754,9.636 21.719,-1.349 42.921,3.914 53.805,22.294 63.967,39.47 57.028,62.836 38.664,73.255 21.96,82.746 -1.142,76.363 -11.16,59.488 c -7.571,-12.497 -6.613,-28.386 2.405,-39.879 -1.606,2.017 -3.359,3.913 -5.243,5.673 -8.528,8.051 -18.168,14.833 -28.622,20.138 0.932,9.318 3.63,18.373 7.949,26.679 14.96,29.557 57.954,41.433 87.586,25.293 C 82.547,81.253 94.008,39.181 77.051,8.865 70.075,-3.187 59.345,-12.614 46.505,-17.97 42.681,-14.839 38.808,-11.755 34.864,-8.793 23.367,-0.169 10.944,2.493 0,0" /></g><g
           id="g32"><g
             id="g34" /><g
             id="g46"><g
               style="opacity:0.880005"
               id="g44"
               clip-path="url(#clipPath38)"><g
                 id="g42"
                 transform="translate(166.5271,189.8393)"><path
                   id="path40"
                   style="fill:#ffffff;fill-opacity:1;fill-rule:nonzero;stroke:none"
                   d="M 0,0 C 1.885,-1.759 3.637,-3.656 5.243,-5.673 L 5.544,-6.058 C 9.978,-11.639 12.879,-18.281 13.962,-25.33 7.061,-26.92 0.785,-30.52 -4.077,-35.676 -21.623,-21.849 -30.606,-1.602 -28.622,20.139 -18.167,14.834 -8.528,8.051 0,0" /></g></g></g></g><g
           transform="translate(169.9786,80.306)"
           id="g48"><path
             id="path50"
             style="fill:#ffffff;fill-opacity:1;fill-rule:nonzero;stroke:none"
             d="m 0,0 c 0.301,17.681 2.044,35.339 7.216,52.322 3.054,9.997 9.777,11.755 18.412,5.901 C 39.771,48.821 52.823,37.869 64.544,25.571 72.132,17.489 71.375,10.503 61.429,5.697 46.409,-1.53 30.474,-6.348 15.562,-9.961 4.654,-11.358 -0.108,-8.588 0,0 m 20.949,-36.471 c 17.029,3.877 33.654,9.353 49.656,16.357 16.103,6.997 25.916,23.029 24.052,42.095 C 93.671,30.545 87.995,39.35 79.937,46.468 72.373,53.153 64.773,59.813 56.968,66.221 41.863,59.705 24.497,58.549 9.08,64.294 4.378,43.059 -7.095,25.161 -23.908,11.057 c -0.565,-0.47 -1.13,-0.915 -1.696,-1.349 -0.168,-2.786 -0.276,-5.577 -0.324,-8.371 -0.19,-11.778 5.055,-22.986 14.216,-30.374 9.161,-7.389 21.212,-10.132 32.661,-7.434" /></g><g
           id="g52"><g
             id="g54" /><g
             id="g66"><g
               style="opacity:0.880005"
               id="g64"
               clip-path="url(#clipPath58)"><g
                 id="g62"
                 transform="translate(162.4382,154.1994)"><path
                   id="path60"
                   style="fill:#ffffff;fill-opacity:1;fill-rule:nonzero;stroke:none"
                   d="m 0,0 c 2.39,-1.877 4.892,-3.606 7.492,-5.179 2.905,-1.752 5.964,-3.232 9.14,-4.421 -4.702,-21.234 -16.175,-39.132 -32.987,-53.236 -0.566,-0.47 -1.131,-0.916 -1.696,-1.349 0.904,14.643 3.224,29.165 6.927,43.36 C -9.26,-13.043 -5.429,-5.872 0,0" /></g></g></g></g><g
           id="g68"><g
             id="g70" /><g
             id="g82"><g
               style="opacity:0.880005"
               id="g80"
               clip-path="url(#clipPath74)"><g
                 id="g78"
                 transform="translate(179.0703,144.5999)"><path
                   id="path76"
                   style="fill:#ffffff;fill-opacity:1;fill-rule:nonzero;stroke:none"
                   d="m 0,0 c 0.577,2.59 1.058,5.215 1.419,7.901 0.578,3.994 0.578,8.051 0,12.045 10.944,2.493 23.367,-0.169 34.876,-8.841 C 40.239,8.142 44.112,5.083 47.936,1.927 32.783,-4.589 15.357,-5.745 0,0" /></g></g></g></g><g
           id="g84"><g
             id="g86" /><g
             id="g98"><g
               style="opacity:0.75999499"
               id="g96"
               clip-path="url(#clipPath90)"><g
                 id="g94"
                 transform="translate(169.9786,149.0202)"><path
                   id="path92"
                   style="fill:#ffffff;fill-opacity:1;fill-rule:nonzero;stroke:none"
                   d="m 0,0 c -2.6,1.573 -5.102,3.302 -7.492,5.179 4.861,5.156 11.138,8.756 18.039,10.346 0.578,-3.994 0.578,-8.05 0,-12.044 C 10.186,0.795 9.705,-1.831 9.128,-4.42 5.956,-3.231 2.9,-1.751 0,0" /></g></g></g></g><g
           transform="translate(462.4555,226.8567)"
           id="g100"><path
             id="path102"
             style="fill:#ffffff;fill-opacity:1;fill-rule:nonzero;stroke:none"
             d="m 0,0 h -20.492 l -46.366,-104.963 9.826,-25.078 z" /></g><g
           transform="translate(547.9056,117.7384)"
           id="g104"><path
             id="path106"
             style="fill:#ffffff;fill-opacity:1;fill-rule:nonzero;stroke:none"
             d="m 0,0 c -3.146,-5.81 -7.48,-10.318 -13.014,-13.527 -5.532,-3.211 -11.782,-4.815 -18.748,-4.815 -6.968,0 -13.218,1.604 -18.751,4.815 -5.532,3.209 -9.907,7.717 -13.115,13.527 -3.211,5.804 -4.814,12.464 -4.814,19.978 0,7.511 1.603,14.171 4.814,19.98 3.208,5.805 7.583,10.278 13.115,13.422 5.533,3.141 11.783,4.714 18.751,4.714 6.966,0 13.216,-1.573 18.748,-4.714 C -7.48,50.236 -3.146,45.763 0,39.958 3.141,34.149 4.713,27.489 4.713,19.978 4.713,12.464 3.141,5.804 0,0 m -2.766,68.236 c -8.541,4.714 -18.206,7.07 -28.996,7.07 -10.794,0 -20.492,-2.356 -29.1,-7.07 -8.606,-4.713 -15.336,-11.27 -20.184,-19.67 -4.85,-8.404 -7.275,-17.932 -7.275,-28.588 0,-10.656 2.425,-20.184 7.275,-28.586 4.848,-8.401 11.578,-14.993 20.184,-19.774 8.608,-4.783 18.306,-7.173 29.1,-7.173 10.79,0 20.455,2.39 28.996,7.173 8.535,4.781 15.23,11.373 20.081,19.774 4.847,8.402 7.275,17.93 7.275,28.586 0,10.656 -2.428,20.184 -7.275,28.588 -4.851,8.4 -11.546,14.957 -20.081,19.67" /></g><g
           transform="translate(627.7203,171.1188)"
           id="g108"><path
             id="path110"
             style="fill:#ffffff;fill-opacity:1;fill-rule:nonzero;stroke:none"
             d="m 0,0 c 5.668,3.141 12.056,4.713 19.161,4.713 6.147,0 11.746,-1.301 16.803,-3.894 5.052,-2.596 9.288,-6.49 12.705,-11.68 l 14.959,9.632 C 59.392,6.283 53.413,12.02 45.696,15.984 37.978,19.944 29.201,21.925 19.365,21.925 8.3,21.925 -1.571,19.57 -10.246,14.856 -18.922,10.143 -25.717,3.585 -30.634,-4.815 c -4.92,-8.403 -7.379,-17.931 -7.379,-28.587 0,-10.656 2.459,-20.185 7.379,-28.586 4.917,-8.402 11.712,-14.993 20.388,-19.774 8.675,-4.784 18.546,-7.174 29.611,-7.174 9.836,0 18.613,2.014 26.331,6.046 7.717,4.028 13.696,9.801 17.932,17.317 l -14.959,9.425 c -3.417,-5.194 -7.653,-9.087 -12.705,-11.681 -5.057,-2.597 -10.656,-3.893 -16.803,-3.893 -7.105,0 -13.493,1.569 -19.161,4.713 -5.67,3.143 -10.112,7.616 -13.319,13.422 -3.211,5.805 -4.815,12.534 -4.815,20.185 0,7.511 1.604,14.171 4.815,19.98 C -10.112,-7.617 -5.67,-3.144 0,0" /></g><g
           transform="translate(783.1514,116.6103)"
           id="g112"><path
             id="path114"
             style="fill:#ffffff;fill-opacity:1;fill-rule:nonzero;stroke:none"
             d="m 0,0 c -2.459,-6.147 -6.423,-10.896 -11.886,-14.243 -5.465,-3.348 -11.955,-5.019 -19.466,-5.019 -7.516,0 -13.391,1.569 -17.624,4.712 -4.236,3.142 -6.352,7.445 -6.352,12.91 0,11.201 8.33,16.804 24.999,16.804 l 30.329,0 z m 7.684,65.369 c -7.991,7.376 -19.503,11.065 -34.529,11.065 -8.743,0 -17.007,-1.197 -24.794,-3.586 -7.787,-2.391 -14.482,-5.841 -20.083,-10.348 l 8.197,-14.755 c 4.233,3.551 9.427,6.386 15.574,8.505 6.147,2.117 12.43,3.176 18.852,3.176 9.561,0 16.803,-2.254 21.722,-6.763 C -2.459,48.155 0,41.667 0,33.198 v -3.894 h -31.148 c -15.163,0 -26.23,-2.904 -33.196,-8.711 -6.968,-5.807 -10.452,-13.491 -10.452,-23.052 0,-9.564 3.654,-17.284 10.964,-23.156 7.306,-5.876 17.04,-8.812 29.2,-8.812 8.332,0 15.54,1.332 21.62,3.995 6.077,2.665 10.758,6.524 14.037,11.579 v -14.345 h 18.647 v 65.575 c 0,14.616 -3.995,25.615 -11.988,32.992" /></g><path
           id="path116"
           style="fill:#ffffff;fill-opacity:1;fill-rule:nonzero;stroke:none"
           d="m 839.296,82.183 h 19.672 v 152.05 h -19.672 z" /><g
           transform="translate(924.4391,171.1188)"
           id="g118"><path
             id="path120"
             style="fill:#ffffff;fill-opacity:1;fill-rule:nonzero;stroke:none"
             d="m 0,0 c 5.668,3.141 12.056,4.713 19.161,4.713 6.147,0 11.746,-1.301 16.803,-3.894 5.052,-2.596 9.288,-6.49 12.705,-11.68 l 14.959,9.632 C 59.392,6.283 53.413,12.02 45.696,15.984 37.978,19.944 29.201,21.925 19.365,21.925 8.3,21.925 -1.571,19.57 -10.246,14.856 -18.922,10.143 -25.717,3.585 -30.634,-4.815 c -4.92,-8.403 -7.379,-17.931 -7.379,-28.587 0,-10.656 2.459,-20.185 7.379,-28.586 4.917,-8.402 11.712,-14.993 20.388,-19.774 8.675,-4.784 18.546,-7.174 29.611,-7.174 9.836,0 18.613,2.014 26.331,6.046 7.717,4.028 13.696,9.801 17.932,17.317 l -14.959,9.425 c -3.417,-5.194 -7.653,-9.087 -12.705,-11.681 -5.057,-2.597 -10.656,-3.893 -16.803,-3.893 -7.105,0 -13.493,1.569 -19.161,4.713 -5.67,3.143 -10.112,7.616 -13.319,13.422 -3.211,5.805 -4.815,12.534 -4.815,20.185 0,7.511 1.604,14.171 4.815,19.98 C -10.112,-7.617 -5.67,-3.144 0,0" /></g><g
           transform="translate(1090.116,117.7384)"
           id="g122"><path
             id="path124"
             style="fill:#ffffff;fill-opacity:1;fill-rule:nonzero;stroke:none"
             d="m 0,0 c -3.146,-5.81 -7.48,-10.318 -13.014,-13.527 -5.532,-3.211 -11.782,-4.815 -18.748,-4.815 -6.968,0 -13.218,1.604 -18.751,4.815 -5.532,3.209 -9.907,7.717 -13.115,13.527 -3.211,5.804 -4.815,12.464 -4.815,19.978 0,7.511 1.604,14.171 4.815,19.98 3.208,5.805 7.583,10.278 13.115,13.422 5.533,3.141 11.783,4.714 18.751,4.714 6.966,0 13.216,-1.573 18.748,-4.714 C -7.48,50.236 -3.146,45.763 0,39.958 3.141,34.149 4.713,27.489 4.713,19.978 4.713,12.464 3.141,5.804 0,0 m -2.766,68.236 c -8.541,4.714 -18.206,7.07 -28.996,7.07 -10.794,0 -20.492,-2.356 -29.1,-7.07 -8.606,-4.713 -15.336,-11.27 -20.184,-19.67 -4.85,-8.404 -7.275,-17.932 -7.275,-28.588 0,-10.656 2.425,-20.184 7.275,-28.586 4.848,-8.401 11.578,-14.993 20.184,-19.774 8.608,-4.783 18.306,-7.173 29.1,-7.173 10.79,0 20.455,2.39 28.996,7.173 8.536,4.781 15.23,11.373 20.081,19.774 4.847,8.402 7.275,17.93 7.275,28.586 0,10.656 -2.428,20.184 -7.275,28.588 -4.851,8.4 -11.545,14.957 -20.081,19.67" /></g><g
           transform="translate(1322.2883,144.6843)"
           id="g126"><path
             id="path128"
             style="fill:#ffffff;fill-opacity:1;fill-rule:nonzero;stroke:none"
             d="m 0,0 c 0,15.574 -3.996,27.322 -11.989,35.245 -7.991,7.922 -18.819,11.885 -32.478,11.885 -9.155,0 -17.387,-1.775 -24.693,-5.326 -7.31,-3.555 -13.012,-8.472 -17.111,-14.755 -3.554,6.557 -8.606,11.542 -15.163,14.959 -6.558,3.412 -14.073,5.122 -22.542,5.122 -8.197,0 -15.507,-1.468 -21.925,-4.404 -6.424,-2.94 -11.615,-7.208 -15.574,-12.808 v 16.189 h -18.854 V -62.501 h 19.673 v 55.944 c 0,11.609 2.936,20.522 8.812,26.741 5.871,6.216 13.797,9.324 23.769,9.324 9.017,0 15.948,-2.663 20.799,-7.993 4.849,-5.326 7.275,-13.252 7.275,-23.769 v -60.247 h 0.276 l 19.397,11.902 v 44.042 c 0,11.609 2.936,20.522 8.812,26.741 5.87,6.216 13.797,9.324 23.769,9.324 9.017,0 15.949,-2.663 20.799,-7.993 4.849,-5.326 7.276,-13.252 7.276,-23.769 V -61.653 L 0,-49.581 Z" /></g><g
           transform="translate(401.8606,82.1831)"
           id="g130"><path
             id="path132"
             style="fill:#ffffff;fill-opacity:1;fill-rule:nonzero;stroke:none"
             d="m 0,0 h -22.254 l -53.41,121.943 c -0.143,0.323 -0.309,0.65 -0.487,0.955 -7.912,13.6 -11.935,9.645 -17.936,9.645 0,4.046 0,18.208 18.208,16.184 8.092,-2.023 10.116,-2.023 18.208,-18.208 z" /></g></g></g></g></svg>